<svg version="1.0" xmlns="http://www.w3.org/2000/svg" viewBox="0 0 512.000000 512.000000"
 preserveAspectRatio="xMidYMid meet">
<g transform="translate(0.000000,512.000000) scale(0.100000,-0.100000)"
fill="#000000" stroke="none">
<path d="M38 4421 l-33 -29 -3 -371 c-3 -416 -3 -419 66 -448 46 -19 101 -5
131 34 20 25 21 38 21 324 l0 299 293 0 c268 0 295 2 323 19 63 38 70 128 13
175 l-31 26 -374 0 -374 0 -32 -29z"/>
<path d="M4271 4424 c-57 -47 -50 -137 13 -175 28 -17 55 -19 324 -19 l292 0
0 -299 c0 -286 1 -299 21 -324 30 -39 85 -53 131 -34 69 29 69 32 66 448 l-3
371 -33 29 -32 29 -374 0 -374 0 -31 -26z"/>
<path d="M760 3783 c-8 -3 -26 -10 -38 -16 -54 -26 -52 25 -52 -1206 0 -840 3
-1147 12 -1165 16 -36 54 -58 99 -58 45 1 71 16 93 53 14 24 16 135 16 1171 0
1057 -1 1145 -17 1168 -26 39 -77 62 -113 53z"/>
<path d="M1191 3776 c-19 -6 -44 -24 -55 -39 -21 -28 -21 -30 -21 -951 0
-1016 -3 -960 62 -991 65 -31 143 7 157 76 11 54 7 1791 -4 1830 -18 64 -77
96 -139 75z"/>
<path d="M2081 3776 c-19 -6 -44 -24 -55 -39 -21 -28 -21 -30 -21 -951 0
-1016 -3 -960 62 -991 65 -31 143 7 157 76 3 18 6 432 6 921 0 931 0 931 -42
966 -28 23 -72 30 -107 18z"/>
<path d="M2971 3776 c-19 -6 -44 -24 -55 -39 -21 -28 -21 -30 -21 -951 0
-1016 -3 -960 62 -991 65 -31 143 7 157 76 3 18 6 432 6 921 0 931 0 931 -42
966 -28 23 -72 30 -107 18z"/>
<path d="M3861 3776 c-19 -6 -44 -24 -55 -39 -21 -28 -21 -30 -21 -951 0
-1016 -3 -960 62 -991 65 -31 143 7 157 76 3 18 6 432 6 921 0 931 0 931 -42
966 -28 23 -72 30 -107 18z"/>
<path d="M4320 3781 c-34 -8 -53 -21 -73 -51 -16 -23 -17 -111 -17 -1168 0
-1036 2 -1147 16 -1171 22 -37 48 -52 93 -53 45 0 83 22 99 58 9 18 12 325 12
1165 0 1231 2 1180 -52 1206 -35 17 -51 20 -78 14z"/>
<path d="M1604 3762 c-12 -9 -27 -27 -33 -39 -8 -15 -11 -285 -11 -945 0
-1015 -4 -950 60 -983 37 -19 63 -19 100 0 63 33 60 -16 60 992 0 849 -1 920
-17 943 -9 14 -24 30 -33 37 -23 19 -101 16 -126 -5z"/>
<path d="M2500 3767 c-9 -7 -24 -23 -33 -37 -16 -23 -17 -107 -17 -1170 0
-1063 1 -1147 17 -1170 27 -40 45 -49 93 -49 48 0 66 9 93 49 16 23 17 107 17
1170 0 1063 -1 1147 -17 1170 -27 40 -45 49 -93 49 -25 0 -52 -5 -60 -12z"/>
<path d="M3390 3767 c-9 -7 -24 -23 -33 -37 -16 -23 -17 -94 -17 -943 0 -1008
-3 -959 60 -992 37 -19 63 -19 100 0 64 33 60 -32 60 983 0 660 -3 930 -11
945 -20 39 -51 57 -99 56 -25 0 -52 -5 -60 -12z"/>
<path d="M63 1545 c-63 -27 -64 -35 -61 -446 l3 -371 33 -29 32 -29 374 0 374
0 31 26 c57 47 50 137 -13 175 -28 17 -55 19 -323 19 l-293 0 0 298 c0 330 0
331 -66 358 -41 17 -50 17 -91 -1z"/>
<path d="M1174 1545 c-108 -55 -50 -231 69 -208 34 7 83 53 89 85 17 90 -77
164 -158 123z"/>
<path d="M1618 1544 c-15 -8 -35 -28 -43 -44 -57 -110 69 -214 164 -134 57 47
50 137 -13 175 -37 23 -71 24 -108 3z"/>
<path d="M2075 1551 c-52 -23 -80 -84 -62 -138 44 -132 243 -72 205 62 -17 61
-89 99 -143 76z"/>
<path d="M2975 1553 c-29 -7 -56 -34 -71 -70 -29 -67 26 -145 101 -145 48 0
87 29 102 76 28 81 -48 161 -132 139z"/>
<path d="M3402 1543 c-67 -33 -81 -110 -31 -168 27 -31 37 -35 78 -35 25 0 53
6 61 13 73 57 63 160 -17 193 -41 18 -50 17 -91 -3z"/>
<path d="M3855 1551 c-40 -18 -68 -58 -68 -100 0 -69 43 -113 109 -113 66 0
124 72 109 135 -15 57 -98 101 -150 78z"/>
<path d="M4964 1546 c-64 -28 -64 -30 -64 -358 l0 -298 -292 0 c-269 0 -296
-2 -324 -19 -63 -38 -70 -128 -13 -175 l31 -26 374 0 374 0 32 29 33 29 3 371
c3 414 2 419 -63 447 -42 17 -51 17 -91 0z"/>
</g>
</svg>
