<svg version="1.0" xmlns="http://www.w3.org/2000/svg" viewBox="0 0 512.000000 512.000000"
 preserveAspectRatio="xMidYMid meet">
<g transform="translate(0.000000,512.000000) scale(0.100000,-0.100000)"
fill="#000000" stroke="none">
<path d="M4598 4491 c-243 -127 -627 -368 -878 -551 -503 -366 -952 -799
-1267 -1224 -126 -169 -229 -331 -313 -490 l-64 -119 -40 46 c-23 26 -169 195
-326 376 -157 181 -298 337 -315 346 -27 14 -82 16 -528 13 l-499 -3 -24 -28
c-39 -46 -33 -95 19 -155 23 -27 469 -511 991 -1075 554 -599 960 -1030 976
-1037 40 -16 96 3 114 38 7 15 32 97 55 182 270 1001 821 2009 1558 2852 155
177 436 461 595 600 75 65 139 126 142 134 9 24 7 73 -4 95 -12 21 -60 49 -84
49 -9 0 -57 -22 -108 -49z"/>
</g>
</svg>
