<svg version="1.0" xmlns="http://www.w3.org/2000/svg" viewBox="0 0 512.000000 512.000000"
 preserveAspectRatio="xMidYMid meet">
<g transform="translate(0.000000,512.000000) scale(0.100000,-0.100000)"
fill="#000000" stroke="none">
<path d="M560 4597 c-50 -25 -50 -23 -47 -599 2 -533 2 -538 23 -559 30 -30
86 -30 119 1 l25 23 0 489 0 488 488 0 c384 1 491 3 504 14 42 32 43 103 0
136 -24 19 -42 20 -556 20 -406 0 -537 -3 -556 -13z"/>
<path d="M3448 4590 c-31 -24 -41 -60 -28 -96 21 -55 7 -53 533 -54 l487 0 0
-487 c1 -385 3 -492 14 -505 30 -40 99 -43 133 -6 17 19 18 53 18 569 l0 548
-23 23 -23 23 -543 3 c-530 2 -543 2 -568 -18z"/>
<path d="M1074 4086 c-20 -9 -35 -25 -43 -46 -18 -52 -15 -870 3 -914 24 -56
28 -57 519 -54 l446 3 23 23 23 23 3 448 c2 288 -1 458 -8 475 -20 54 -39 56
-507 56 -338 -1 -435 -4 -459 -14z m804 -504 l2 -342 -342 2 -343 3 -3 330
c-1 181 0 336 3 343 3 10 76 12 342 10 l338 -3 3 -343z"/>
<path d="M1392 3727 c-20 -21 -22 -34 -22 -141 0 -64 4 -126 10 -136 15 -28
64 -40 162 -40 145 0 168 23 168 169 0 97 -12 146 -40 161 -10 6 -72 10 -138
10 -111 0 -120 -1 -140 -23z"/>
<path d="M2283 4092 c-13 -2 -32 -15 -43 -29 -17 -22 -20 -40 -20 -138 0 -98
3 -116 21 -139 28 -36 89 -37 124 -1 24 23 25 30 25 138 0 99 -3 118 -20 139
-20 26 -48 36 -87 30z"/>
<path d="M3122 4085 c-18 -8 -37 -26 -42 -41 -7 -17 -10 -187 -8 -475 l3 -448
23 -23 23 -23 446 -3 c491 -3 495 -2 519 54 18 44 21 862 3 914 -21 59 -30 60
-506 60 -346 -1 -434 -3 -461 -15z m803 -500 l0 -340 -342 -3 -343 -2 0 338
c0 186 3 342 7 345 4 4 158 6 342 5 l336 -3 0 -340z"/>
<path d="M3452 3743 c-28 -11 -42 -62 -42 -157 0 -154 21 -176 169 -176 95 0
136 10 157 38 9 12 13 55 14 138 0 113 -1 122 -23 142 -21 20 -33 22 -143 21
-65 0 -125 -3 -132 -6z"/>
<path d="M2623 3923 c-13 -2 -32 -16 -43 -30 -18 -23 -20 -40 -20 -169 l0
-144 -149 0 -150 0 -20 -26 c-28 -35 -26 -77 3 -111 l24 -28 207 0 207 0 24
28 c23 27 24 35 24 166 l0 138 62 6 c51 5 67 10 85 32 30 34 29 77 -1 112 -23
26 -28 27 -127 29 -57 1 -114 0 -126 -3z"/>
<path d="M2415 3215 l-25 -24 0 -231 0 -230 -60 0 c-51 0 -65 -4 -85 -25 -34
-33 -34 -87 0 -120 24 -25 25 -25 219 -25 124 0 204 4 220 11 50 23 58 112 13
144 -13 9 -44 15 -79 15 l-58 0 0 170 0 170 135 0 c77 0 144 5 158 11 50 23
62 95 22 134 -24 25 -25 25 -230 25 -205 0 -206 0 -230 -25z"/>
<path d="M1053 2876 l-28 -24 0 -292 0 -292 28 -24 c34 -29 76 -31 111 -3 l26
20 0 150 0 149 144 0 c136 0 146 1 171 23 35 29 37 89 6 121 -19 19 -36 21
-169 26 l-147 5 -3 62 c-3 53 -7 65 -29 83 -34 27 -76 25 -110 -4z"/>
<path d="M2939 2887 c-31 -24 -39 -56 -39 -162 0 -105 0 -107 30 -137 27 -26
36 -30 68 -25 63 11 72 32 72 169 0 113 -1 120 -25 143 -27 27 -79 33 -106 12z"/>
<path d="M3443 2876 l-28 -24 -3 -231 -3 -231 -140 0 -141 0 -29 -29 -29 -29
0 -141 0 -141 -56 0 c-48 0 -59 -4 -85 -29 -16 -16 -29 -39 -29 -51 0 -29 26
-76 45 -84 9 -3 68 -6 131 -6 109 0 116 1 139 25 24 23 25 28 25 170 l0 145
145 0 c142 0 147 1 170 25 l25 24 0 231 0 230 60 0 c51 0 65 4 85 25 36 35 35
96 -1 124 -23 18 -41 21 -140 21 -105 0 -115 -2 -141 -24z"/>
<path d="M1905 2705 c-24 -23 -25 -28 -25 -170 l0 -145 -145 0 c-142 0 -147
-1 -170 -25 -17 -16 -25 -35 -25 -60 0 -25 8 -44 25 -60 l24 -25 370 0 c203 0
377 3 386 6 19 8 45 55 45 84 0 12 -13 35 -29 51 l-29 29 -141 0 -141 0 0 141
0 141 -29 29 c-38 37 -82 39 -116 4z"/>
<path d="M3956 2709 l-26 -20 0 -150 0 -149 -59 0 c-80 0 -111 -24 -111 -85 0
-35 5 -48 26 -64 23 -18 41 -21 140 -21 105 0 115 2 141 24 l28 24 0 207 0
207 -28 24 c-34 29 -76 31 -111 3z"/>
<path d="M2604 2208 c-36 -17 -44 -52 -44 -193 l0 -135 -141 0 -141 0 -29 -29
c-29 -29 -29 -31 -29 -146 0 -110 1 -117 25 -140 16 -17 35 -25 60 -25 58 0
85 35 85 110 l0 60 85 0 85 0 0 -60 c0 -75 27 -110 85 -110 25 0 44 8 60 25
l25 24 0 288 c-1 302 -1 307 -47 331 -26 14 -50 14 -79 0z"/>
<path d="M1072 2040 c-49 -20 -52 -46 -52 -505 0 -473 1 -483 60 -504 23 -7
166 -11 457 -11 463 0 483 2 503 56 7 17 10 187 8 475 l-3 448 -23 23 -23 23
-452 2 c-263 1 -462 -2 -475 -7z m806 -502 l-3 -343 -340 0 -340 0 -3 330 c-1
181 0 336 3 342 3 10 81 13 345 13 l340 0 -2 -342z"/>
<path d="M1415 1698 c-41 -22 -45 -38 -45 -163 0 -114 1 -123 23 -143 21 -20
34 -22 141 -22 64 0 126 4 136 10 28 15 40 64 40 162 0 99 -13 137 -55 156
-33 15 -213 15 -240 0z"/>
<path d="M3452 2034 c-49 -34 -48 -117 1 -142 14 -8 100 -13 247 -15 l225 -2
3 -145 c2 -132 4 -146 24 -167 23 -25 75 -31 108 -13 32 17 40 67 40 242 0
188 -10 231 -55 248 -15 6 -142 10 -298 10 -234 0 -276 -2 -295 -16z"/>
<path d="M574 1703 c-12 -2 -30 -13 -40 -25 -18 -19 -19 -48 -19 -569 l0 -548
23 -23 23 -23 548 0 c516 0 550 1 569 18 37 34 34 103 -6 133 -13 11 -120 13
-504 14 l-488 0 0 488 c0 478 0 489 -20 510 -12 12 -25 22 -30 22 -4 0 -14 2
-22 4 -7 2 -23 1 -34 -1z"/>
<path d="M3120 1697 c-33 -17 -50 -53 -50 -109 l0 -48 -45 0 c-56 0 -103 -23
-115 -56 -6 -14 -10 -86 -10 -160 l0 -134 -234 0 -235 0 -20 -26 c-28 -35 -26
-77 3 -111 l24 -28 291 0 c364 0 334 -17 341 193 l5 147 62 3 c53 3 65 7 83
29 18 23 20 40 20 142 -1 125 -6 143 -54 161 -34 13 -36 12 -66 -3z"/>
<path d="M4491 1699 c-51 -20 -50 -10 -51 -531 l0 -488 -487 0 c-531 -1 -513
1 -534 -58 -13 -38 4 -80 41 -99 20 -10 142 -12 562 -10 l537 2 23 23 23 23 0
549 c0 536 0 550 -20 569 -25 24 -63 32 -94 20z"/>
<path d="M3634 1526 c-44 -19 -54 -58 -54 -207 l0 -129 -56 0 c-30 0 -64 -4
-74 -10 -27 -15 -41 -64 -28 -101 19 -54 47 -59 331 -59 315 0 337 6 337 92 0
68 -11 72 -182 78 l-153 5 -2 135 c-4 170 -5 178 -48 196 -40 16 -32 16 -71 0z"/>
</g>
</svg>
