<svg version="1.0" xmlns="http://www.w3.org/2000/svg" viewBox="0 0 512.000000 512.000000"
 preserveAspectRatio="xMidYMid meet">
<g transform="translate(0.000000,512.000000) scale(0.100000,-0.100000)"
fill="#000000" stroke="none">
<path d="M1125 5102 c-74 -28 -103 -48 -264 -184 -190 -160 -251 -218 -321
-303 -217 -265 -336 -571 -359 -923 -20 -310 33 -610 170 -972 48 -126 213
-446 308 -598 378 -605 983 -1260 1501 -1628 736 -521 1464 -632 2083 -317
135 69 232 138 389 278 247 220 289 273 307 384 29 182 -82 337 -479 675 -282
241 -466 336 -642 336 -170 -1 -272 -62 -556 -333 -78 -75 -157 -142 -183
-154 -223 -110 -518 24 -899 406 -282 283 -532 606 -654 844 -115 226 -139
398 -73 539 29 62 74 110 177 186 101 75 290 242 334 295 19 24 50 74 67 111
26 57 33 84 37 160 6 121 -19 221 -97 382 -67 139 -249 431 -350 561 -175 226
-342 312 -496 255z"/>
</g>
</svg>
