<svg version="1.0" xmlns="http://www.w3.org/2000/svg" viewBox="0 0 512.000000 512.000000"
 preserveAspectRatio="xMidYMid meet">
<g transform="translate(0.000000,512.000000) scale(0.100000,-0.100000)"
fill="#000000" stroke="none">
<path d="M2285 4675 c-811 -106 -1495 -672 -1749 -1446 -75 -229 -106 -422
-106 -669 0 -247 31 -440 106 -669 151 -461 457 -854 879 -1131 178 -116 454
-231 675 -280 211 -47 495 -63 705 -40 382 43 751 191 1065 428 181 137 403
387 530 596 368 610 401 1386 86 2031 -321 655 -959 1106 -1678 1184 -128 14
-388 12 -513 -4z m405 -845 c267 -42 501 -211 624 -450 63 -122 87 -211 93
-356 12 -265 -75 -476 -273 -663 -68 -64 -106 -91 -187 -131 -145 -71 -232
-92 -387 -92 -96 0 -144 5 -205 21 -320 85 -565 339 -629 653 -20 97 -21 255
-1 348 93 443 521 740 965 670z m325 -1929 c316 -38 569 -125 677 -232 113
-113 98 -295 -34 -414 -74 -66 -238 -173 -349 -228 -350 -171 -764 -217 -1146
-126 -240 57 -496 184 -679 337 -85 70 -124 148 -124 244 0 124 55 198 206
272 174 86 377 134 664 156 136 11 669 4 785 -9z"/>
</g>
</svg>
