<svg version="1.0" xmlns="http://www.w3.org/2000/svg" viewBox="0 0 512.000000 512.000000"
 preserveAspectRatio="xMidYMid meet">
<g transform="translate(0.000000,512.000000) scale(0.100000,-0.100000)"
fill="#000000" stroke="none">
<path d="M2315 5109 c-485 -50 -943 -235 -1334 -537 -111 -85 -348 -322 -433
-433 -158 -203 -309 -474 -394 -704 -47 -128 -107 -367 -130 -520 -26 -168
-26 -541 0 -710 23 -151 83 -391 131 -521 85 -231 235 -500 393 -703 81 -105
310 -336 412 -417 207 -163 488 -322 724 -409 130 -48 370 -108 521 -131 148
-22 532 -26 670 -6 482 69 888 240 1265 530 103 80 334 309 416 412 161 204
323 491 409 724 48 130 108 370 131 521 14 90 18 179 18 355 0 176 -4 265 -18
355 -23 151 -83 391 -131 521 -87 236 -247 518 -409 724 -78 99 -300 320 -401
400 -358 284 -774 464 -1235 535 -126 19 -477 28 -605 14z m95 -754 l0 -435
-340 0 c-187 0 -340 1 -340 3 0 13 81 200 125 286 131 262 295 451 480 553 28
15 56 28 63 28 9 0 12 -94 12 -435z m400 393 c97 -53 254 -209 336 -333 70
-105 157 -273 208 -399 20 -50 36 -91 36 -93 0 -2 -153 -3 -340 -3 l-340 0 0
435 c0 341 3 435 13 435 6 0 46 -19 87 -42z m-1091 -175 c-87 -131 -204 -366
-263 -528 l-44 -120 -327 -3 -327 -2 20 28 c112 157 356 379 566 516 111 72
401 215 438 216 4 0 -24 -48 -63 -107z m1708 73 c242 -104 444 -231 643 -406
77 -68 226 -229 271 -291 l21 -29 -327 2 -327 3 -44 120 c-58 159 -176 397
-255 515 -35 52 -68 101 -72 108 -12 19 5 15 90 -22z m-2118 -1113 c-10 -49
-30 -160 -43 -248 -22 -142 -32 -236 -52 -502 l-6 -73 -450 0 -451 0 7 87 c16
206 99 506 197 714 l52 109 382 0 382 0 -18 -87z m1101 -368 l0 -455 -450 0
-451 0 6 78 c24 323 48 505 92 702 14 63 27 118 30 123 2 4 177 7 389 7 l384
0 0 -455z m1097 355 c43 -184 74 -413 98 -732 l6 -78 -451 0 -450 0 0 455 0
455 387 -2 387 -3 23 -95z m1101 -8 c61 -131 112 -274 146 -413 28 -116 56
-288 56 -349 l0 -40 -449 0 -449 0 -6 63 c-2 34 -10 127 -16 207 -11 150 -47
399 -79 553 l-18 87 382 0 382 0 51 -108z m-3394 -1179 c24 -317 44 -475 103
-790 l6 -33 -382 0 -382 0 -51 107 c-97 207 -179 502 -194 706 l-7 87 451 0
450 0 6 -77z m1196 -373 l0 -450 -388 0 -389 0 -27 123 c-44 206 -66 375 -91
700 l-6 77 451 0 450 0 0 -450z m1195 373 c-25 -325 -47 -494 -91 -700 l-27
-123 -389 0 -388 0 0 450 0 450 450 0 451 0 -6 -77z m1205 37 c0 -62 -28 -234
-56 -349 -35 -140 -86 -284 -144 -408 l-49 -103 -380 0 c-324 0 -381 2 -381
14 0 8 7 48 16 88 29 140 63 378 74 525 6 81 14 176 16 211 l6 62 449 0 449 0
0 -40z m-3355 -1292 c62 -168 185 -415 269 -538 35 -52 63 -96 61 -98 -6 -6
-140 51 -249 106 -125 63 -275 160 -391 252 -96 76 -281 261 -348 348 l-48 62
329 0 329 0 48 -132z m955 -309 l0 -440 -22 6 c-69 21 -160 85 -254 179 -112
113 -198 234 -279 397 -51 101 -125 274 -125 291 0 4 153 8 340 8 l340 0 0
-441z m980 432 c0 -20 -93 -231 -146 -330 -83 -156 -147 -245 -259 -357 -93
-94 -185 -158 -252 -179 l-23 -6 0 440 0 441 340 0 c197 0 340 -4 340 -9z
m940 -43 c-186 -236 -446 -452 -711 -592 -115 -60 -268 -128 -280 -124 -4 2
21 46 57 98 84 123 207 370 269 538 l48 132 330 0 329 0 -42 -52z"/>
</g>
</svg>
